<?xml version="1.0" encoding="UTF-8" standalone="no"?>
<!DOCTYPE svg PUBLIC "-//W3C//DTD SVG 1.1//EN"
 "http://www.w3.org/Graphics/SVG/1.1/DTD/svg11.dtd">
<!-- Generated by graphviz version 2.26.3 (20100126.1600)
 -->
<!-- Title: G Pages: 1 -->
<svg width="355pt" height="576pt"
 viewBox="0.00 0.00 355.00 576.00" xmlns="http://www.w3.org/2000/svg" xmlns:xlink="http://www.w3.org/1999/xlink">
<g id="graph1" class="graph" transform="scale(1 1) rotate(0) translate(4 572)">
<title>G</title>
<polygon fill="white" stroke="white" points="-4,5 -4,-572 352,-572 352,5 -4,5"/>
<!-- 1 -->
<g id="node2" class="node"><title>1</title>
<ellipse fill="palegoldenrod" stroke="palegoldenrod" cx="78" cy="-549" rx="77.7817" ry="18.3848"/>
<text text-anchor="middle" x="78" y="-545.4" font-family="Times Roman,serif" font-size="14.00">genome.fasta</text>
</g>
<!-- 5 -->
<g id="node5" class="node"><title>5</title>
<polygon fill="palegreen" stroke="palegreen" points="192,-400 82,-400 82,-364 192,-364 192,-400"/>
<text text-anchor="middle" x="137" y="-378.4" font-family="Times Roman,serif" font-size="14.00">GeneMark&#45;ET</text>
</g>
<!-- 1&#45;&gt;5 -->
<g id="edge6" class="edge"><title>1&#45;&gt;5</title>
<path fill="none" stroke="black" d="M84.5395,-530.49C94.8716,-501.245 115.038,-444.164 127.135,-409.922"/>
<polygon fill="black" stroke="black" points="130.579,-410.68 130.611,-400.085 123.979,-408.348 130.579,-410.68"/>
</g>
<!-- 10 -->
<g id="node8" class="node"><title>10</title>
<polygon fill="lightskyblue" stroke="lightskyblue" points="187,-136 91,-136 91,-92 187,-92 187,-136"/>
<text text-anchor="middle" x="139" y="-119.4" font-family="Times Roman,serif" font-size="14.00">AUGUSTUS</text>
<text text-anchor="middle" x="139" y="-101.4" font-family="Times Roman,serif" font-size="14.00">prediction</text>
</g>
<!-- 1&#45;&gt;10 -->
<g id="edge18" class="edge"><title>1&#45;&gt;10</title>
<path fill="none" stroke="black" d="M66.6785,-530.36C56.7879,-512.28 44,-483.734 44,-457 44,-457 44,-457 44,-212 44,-182.665 66.2159,-158.785 89.1612,-141.943"/>
<polygon fill="black" stroke="black" points="91.4027,-144.647 97.608,-136.06 87.4018,-138.903 91.4027,-144.647"/>
</g>
<!-- 2 -->
<g id="node3" class="node"><title>2</title>
<ellipse fill="palegoldenrod" stroke="palegoldenrod" cx="269" cy="-549" rx="77.9889" ry="18.3848"/>
<text text-anchor="middle" x="269" y="-545.4" font-family="Times Roman,serif" font-size="14.00">RNA&#45;Seq.bam</text>
</g>
<!-- 4 -->
<g id="node4" class="node"><title>4</title>
<ellipse fill="linen" stroke="linen" cx="269" cy="-457" rx="62.2254" ry="18.3848"/>
<text text-anchor="middle" x="269" y="-453.4" font-family="Times Roman,serif" font-size="14.00">introns.gff</text>
</g>
<!-- 2&#45;&gt;4 -->
<g id="edge4" class="edge"><title>2&#45;&gt;4</title>
<path fill="none" stroke="black" stroke-dasharray="5,2" d="M269,-530.382C269,-517.538 269,-500.216 269,-485.627"/>
<polygon fill="black" stroke="black" points="272.5,-485.59 269,-475.59 265.5,-485.59 272.5,-485.59"/>
<text text-anchor="middle" x="307" y="-499.4" font-family="Times Roman,serif" font-size="14.00">make hints</text>
</g>
<!-- 4&#45;&gt;5 -->
<g id="edge8" class="edge"><title>4&#45;&gt;5</title>
<path fill="none" stroke="black" d="M240.032,-440.541C221.868,-430.22 198.171,-416.756 178.083,-405.343"/>
<polygon fill="black" stroke="black" points="179.564,-402.159 169.14,-400.262 176.106,-408.245 179.564,-402.159"/>
</g>
<!-- 4&#45;&gt;10 -->
<g id="edge14" class="edge"><title>4&#45;&gt;10</title>
<path fill="none" stroke="black" d="M280.066,-438.598C287.893,-423.833 297,-402.292 297,-382 297,-382 297,-382 297,-212 297,-185.482 301.429,-173.068 283,-154 270.855,-141.434 231.622,-131.017 197.17,-123.967"/>
<polygon fill="black" stroke="black" points="197.627,-120.49 187.138,-121.979 196.267,-127.356 197.627,-120.49"/>
</g>
<!-- 15 -->
<g id="node6" class="node"><title>15</title>
<ellipse fill="linen" stroke="linen" cx="149" cy="-291" rx="77.0746" ry="18.3848"/>
<text text-anchor="middle" x="149" y="-287.4" font-family="Times Roman,serif" font-size="14.00">genemark.gtf</text>
</g>
<!-- 5&#45;&gt;15 -->
<g id="edge10" class="edge"><title>5&#45;&gt;15</title>
<path fill="none" stroke="black" d="M136.121,-363.895C135.912,-353.36 136.162,-339.86 138,-328 138.443,-325.144 139.048,-322.2 139.749,-319.28"/>
<polygon fill="black" stroke="black" points="143.135,-320.167 142.403,-309.598 136.384,-318.317 143.135,-320.167"/>
<text text-anchor="middle" x="210.5" y="-333.4" font-family="Times Roman,serif" font-size="14.00">ab initio gene finding</text>
</g>
<!-- 9 -->
<g id="node7" class="node"><title>9</title>
<polygon fill="lightskyblue" stroke="lightskyblue" points="190,-234 94,-234 94,-190 190,-190 190,-234"/>
<text text-anchor="middle" x="142" y="-217.4" font-family="Times Roman,serif" font-size="14.00">AUGUSTUS</text>
<text text-anchor="middle" x="142" y="-199.4" font-family="Times Roman,serif" font-size="14.00">training</text>
</g>
<!-- 15&#45;&gt;9 -->
<g id="edge12" class="edge"><title>15&#45;&gt;9</title>
<path fill="none" stroke="black" stroke-dasharray="5,2" d="M147.341,-272.278C146.599,-263.901 145.702,-253.781 144.857,-244.245"/>
<polygon fill="black" stroke="black" points="148.339,-243.89 143.97,-234.238 141.367,-244.507 148.339,-243.89"/>
</g>
<!-- 9&#45;&gt;10 -->
<g id="edge16" class="edge"><title>9&#45;&gt;10</title>
<path fill="none" stroke="black" stroke-dasharray="5,2" d="M140.77,-189.999C140.479,-184.151 140.196,-177.837 140,-172 139.719,-163.649 139.516,-154.619 139.368,-146.227"/>
<polygon fill="black" stroke="black" points="142.865,-145.982 139.21,-136.038 135.866,-146.091 142.865,-145.982"/>
<text text-anchor="middle" x="211.5" y="-159.4" font-family="Times Roman,serif" font-size="14.00">optimize parameters</text>
</g>
<!-- 11 -->
<g id="node9" class="node"><title>11</title>
<ellipse fill="linen" stroke="linen" cx="139" cy="-19" rx="72.1249" ry="18.3848"/>
<text text-anchor="middle" x="139" y="-15.4" font-family="Times Roman,serif" font-size="14.00">augustus.gff</text>
</g>
<!-- 10&#45;&gt;11 -->
<g id="edge20" class="edge"><title>10&#45;&gt;11</title>
<path fill="none" stroke="black" d="M139,-91.9663C139,-78.8627 139,-62.0881 139,-47.9274"/>
<polygon fill="black" stroke="black" points="142.5,-47.7122 139,-37.7122 135.5,-47.7123 142.5,-47.7122"/>
<text text-anchor="middle" x="192.5" y="-61.4" font-family="Times Roman,serif" font-size="14.00">gene prediction</text>
</g>
</g>
</svg>
